<svg xmlns="http://www.w3.org/2000/svg" viewBox="0 0 1024 1024" width="1em" height="1em" fill="currentColor"><path d="M711.11 312.89H312.9V711.1h398.2V312.9z m-56.89 341.33H369.78V369.78h284.44v284.44z"></path><path d="M1024 312.89V256H881.78V142.22H768V0h-56.89v142.22H540.44V0h-56.88v142.22H312.89V0H256v142.22H142.22V256H0v56.89h142.22v170.67H0v56.88h142.22v170.67H0V768h142.22v113.78H256V1024h56.89V881.78h170.67V1024h56.88V881.78h170.67V1024H768V881.78h113.78V768H1024v-56.89H881.78V540.44H1024v-56.88H881.78V312.89H1024z m-199.11 512H199.1V199.1h625.8v625.8z"></path></svg>